<svg width="130" height="149" viewBox="0 0 130 149" fill="none" xmlns="http://www.w3.org/2000/svg">
<g clip-path="url(#clip0_1_3)">
<path d="M64.9988 149L113.11 120.216H129.998V82.4431H116.109V62.3802C116.109 47.3102 109.636 33.1789 98.3486 23.6083C89.7033 16.2798 78.7728 12.2422 67.5715 12.2422H62.4285C35.6638 12.2422 13.8914 34.7343 13.8914 62.3802V82.4431H0V120.214H16.8881L64.9988 149Z" fill="#0B5455"/>
<path d="M129.998 107.973V70.2024L-0.00158691 70.2024V107.973L129.998 107.973Z" fill="#094546"/>
<path d="M13.8914 106.181V50.138C13.8914 22.4921 35.6638 0 62.4285 0H67.5715C78.7728 0 89.7033 4.03754 98.3486 11.3661C109.636 20.9342 116.109 35.068 116.109 50.138V106.179L64.9988 136.758L13.8914 106.181Z" fill="#D0A650"/>
<path d="M111.521 50.1404V103.572L65.0012 131.402L18.4787 103.572V50.1404C18.4787 25.0294 38.1958 4.59924 62.4284 4.59924H67.5715C77.6924 4.59924 87.5689 8.24791 95.3878 14.8803C105.64 23.5699 111.521 36.4243 111.521 50.1404Z" fill="#094546"/>
<path d="M107 47.0011L74.9577 48.9998L103.808 63.0817L73.4508 52.6289L94.6994 76.6995L70.6289 55.4508L81.0817 85.8077L66.9998 56.9577L65.0011 89L63.0025 56.9577L48.9183 85.8077L59.3711 55.4508L35.3005 76.6995L56.5492 52.6289L26.1923 63.0817L55.0423 48.9998L23 47.0011L55.0423 45.0025L26.1923 30.9183L56.5492 41.3711L35.3028 17.3005L59.3711 38.5492L48.9206 8.19233L63.0025 37.0422L65.0011 5L66.9998 37.0422L81.0817 8.19233L70.6289 38.5492L94.6994 17.3028L73.4508 41.3711L103.808 30.9206L74.9577 45.0025L107 47.0011Z" fill="#0B5455"/>
<path d="M18.4787 62.2445V63.2431H19.1829L18.4787 62.2445ZM110.34 57.9237L106 64.0785H107.734L105.528 67.5543L104.385 65.5691H105.837L102.931 60.9867H104.388L100.751 55.833L97.1125 60.9867H98.569L95.6633 65.5715H97.1149L94.8296 69.5371L92.827 66.6997L90.8795 69.4578L89.2458 66.6253H90.9801L87.5114 61.1547H89.2458L84.9052 55L80.5646 61.1547H82.2989L78.8302 66.6253H80.5646L77.7786 71.4526L76.5641 69.5347H77.9535L74.4801 64.6114L71.0066 69.5347H72.396L69.6843 73.805H68.9513L66.8529 70.1684H68.8052L64.9006 64.0136H66.8529L61.9685 57.0884L57.0841 64.0136H59.0364L55.1318 70.1684H57.0841L54.9857 73.805H54.6695L51.9578 69.5323H53.3472L49.8738 64.609L46.4003 69.5323H47.7897L46.5967 71.4118L45.0421 68.7113H46.7764L43.3078 63.2407H45.0421L40.7015 57.086L36.3609 63.2407H38.0952L34.6266 68.7113H36.3609L35.0338 71.0085L34.2744 69.8179H35.2709L32.7773 66.2773L30.6453 69.3018L28.4894 65.5667H29.941L27.0305 60.9867H28.487L24.8506 55.833L21.2143 60.9867H22.6707L19.7626 65.5715H21.2143L20.1268 67.4607L18.4787 64.8658V108.907H111.521V59.5944L110.34 57.9237ZM90.2064 73.5986L90.1105 73.4618L90.2638 73.4954L90.2064 73.5986Z" fill="#0B5455"/>
<path d="M64.66 24.0488C65.2122 24.7028 65.5818 25.3564 65.5818 26.1513C65.1182 26.384 64.4777 26.479 64.1081 26.8994C66.4099 26.5716 66.8684 29.2808 69.4463 28.2527C69.5399 28.6279 69.9095 28.9554 70.3679 28.8138L70.644 28.0676C71.6545 27.7874 71.3784 29.4684 72.4871 29.1408C73.0396 29.6086 72.6699 30.4016 73.0396 30.9645C73.0396 31.6173 73.3158 32.1778 73.5915 32.738C73.8678 32.4128 74.0501 31.945 74.6956 32.0852C75.1542 32.598 75.5238 33.0658 75.6171 33.6261C75.4301 34.7018 75.154 35.6349 76.2581 36.1951V36.5227C76.9974 36.8504 78.6537 36.1951 78.6537 37.5034C78.5598 37.9712 79.1121 37.551 79.2992 37.831C79.7578 37.6434 80.4034 37.7386 80.9553 37.7386C81.4139 38.7193 80.4034 39.4196 80.1273 40.3076C80.5857 40.7731 80.4034 41.6159 80.3098 42.1736L80.0335 42.3138C80.768 42.4538 81.6896 42.2238 82.3355 42.644L83.5332 43.1093C84.0852 42.7842 84.7262 42.7342 85.4654 42.7842C86.0175 43.2046 85.2782 43.9049 85.7416 44.2301C86.3873 44.2301 86.9393 44.3253 87.028 44.8857L87.1216 45.0708C87.5801 44.2301 88.8714 44.7904 89.4236 44.1853C90.3452 44.1853 90.5275 45.211 90.9859 45.7714C91.1732 47.2221 89.4236 47.8777 89.9755 49.3235C89.6059 50.0238 88.8714 50.5844 88.3195 51.2396C88.5018 51.3346 88.408 51.5649 88.408 51.7049C87.856 52.0353 88.3195 53.0158 87.58 53.1062C87.4913 53.7162 86.3871 53.4812 86.7519 54.1365C87.4911 55.1171 86.3871 55.7226 86.3871 56.613C85.9237 57.1283 85.0021 56.1427 85.0021 57.1283C84.45 57.2683 83.898 56.613 83.5332 57.1735C83.346 57.8289 83.898 58.059 83.8093 58.7144C84.7262 58.6192 85.0023 59.5549 85.3719 60.1153L86.2936 61.0508C85.3719 61.7963 84.1741 60.9556 83.0698 61.3759C82.7937 61.2358 83.0698 60.8656 82.7937 60.7256C82.5176 60.3952 81.9657 60.3952 81.5073 60.305C81.596 60.7256 80.768 60.8654 81.1376 61.3757C81.1376 61.5157 81.32 61.9361 80.9552 61.9361C80.2158 62.1713 80.3096 61.2858 79.6637 61.6109C78.8357 61.9361 79.4814 63.197 78.2837 63.0568C78.466 64.1826 76.4451 64.9281 77.8251 65.9088C78.0075 66.094 77.9139 66.4691 77.9139 66.7493C77.0857 67.4997 75.6166 67.2197 74.6951 66.9393C73.9558 66.7493 74.4191 65.8136 74.1432 65.3033C73.8671 64.8331 73.0391 64.5079 73.0391 63.8525C72.4866 63.622 72.0237 63.4776 71.654 63.0118C70.3676 64.2727 68.8006 65.4884 66.9615 65.5334C66.1335 65.9536 65.6702 67.6399 64.3836 66.9391C63.8784 67.7799 62.3577 66.9391 62.2665 68.1502C61.6676 68.3852 61.9437 69.1807 61.5766 69.5509C61.4384 70.4864 61.5766 71.2819 62.3577 71.8425C62.6805 72.5427 61.6676 72.5427 62.0817 73.1983C62.1754 73.4286 62.0817 73.7586 61.9437 73.8536C61.6676 73.9936 61.5766 74.134 61.6676 74.414C61.4384 74.414 61.345 74.5541 61.1624 74.7391C60.9307 75.2045 60.1962 75.4396 59.6886 75.7648C59.1834 75.9048 58.8137 75.5346 58.4933 75.2045C58.3995 75.7198 57.9857 76 57.4804 76C56.7434 76 56.8816 75.3446 56.3294 75.0645C56.5586 74.2239 55.8218 73.8536 56.0533 73.1032C56.652 72.6379 57.6627 72.3077 57.3866 71.3272C56.7434 70.5365 56.9726 69.3659 56.3294 68.4304C55.9154 68.0601 55.2253 67.4999 55.4545 66.6093C56.0533 65.909 55.4545 65.0683 55.1317 64.3228C54.9938 63.7126 54.6265 63.1523 54.6265 62.4517C53.6136 61.8464 53.5667 60.2553 52.1398 60.1153C51.127 60.1153 50.9445 58.8094 49.9316 58.8995C49.838 58.7144 49.6088 58.5744 49.424 58.3892C48.6895 58.8995 47.7679 58.2492 46.8485 58.4792C46.2496 57.4535 47.3537 56.0526 45.742 55.4422V54.7919C45.9268 54.8818 46.0181 54.6966 46.0648 54.6017C46.156 53.9013 44.9138 53.8112 45.4216 53.0156C45.1455 52.7806 44.8227 52.6854 45.0076 52.2201C44.3151 50.7742 42.2449 50.9144 41.784 49.4635C42.1536 49.1384 42.1536 48.8081 42.2917 48.528C41.9688 47.9676 41.8777 47.3622 41.9688 46.7569C42.2917 46.6617 42.474 46.2416 42.6589 45.9113C42.2449 45.6312 41.7394 45.211 41.2787 45.351C40.4507 45.211 39.8517 44.5605 39.1149 44.1853C38.93 44.0001 39.0238 43.67 39.0238 43.4398C40.0365 43.1094 38.8858 41.6611 40.1279 41.8489C40.4508 41.4287 41.1408 41.2885 41.6462 40.9608C42.1538 40.8684 42.5678 41.0558 43.0731 41.196C43.4871 41.7539 44.2241 41.5213 44.6379 41.9889C45.0519 41.8939 45.5597 41.6611 46.065 41.8939C46.065 41.1009 46.4323 40.633 46.9866 40.0726C47.0778 39.7474 47.5831 39.5123 47.9971 39.3271C48.781 39.5123 49.7002 39.5123 50.2547 38.9519C50.622 39.1869 50.9448 38.7193 51.3588 38.7193C51.8639 38.6243 52.2781 38.7643 52.6478 38.9995C52.6921 38.0638 54.3038 38.8593 54.6268 37.7386C54.9941 36.9906 53.6139 36.7105 53.705 36.0551C53.4758 35.3071 54.0279 34.9344 54.3038 34.4215C54.6266 34.2814 54.9939 34.0939 55.408 34.1864C56.4677 33.8135 55.6395 31.6173 57.3426 32.4128C57.3426 32.6456 57.249 32.9256 57.387 32.9732C57.9858 32.9732 58.0777 32.2721 58.4936 32.0377C58.6759 31.3849 58.2621 30.5894 58.814 30.0764C59.0901 30.029 59.3216 29.9364 59.5041 29.7012C59.5041 29.1883 59.2281 28.9083 58.814 28.5805C58.6761 28.814 58.3088 28.6281 58.0777 28.7207C58.0777 28.1603 57.7566 27.7876 57.663 27.2722C57.387 27.1322 57.249 26.8995 57.3426 26.5717C57.7566 26.1515 57.3426 25.1234 58.3088 25.3566C58.6761 25.0308 59.3216 25.2634 59.689 24.703C60.6551 24.1427 61.9439 24.1427 62.6808 23.1147C63.0036 23.1621 63.3709 22.8344 63.6937 23.1147C63.7851 23.7223 64.66 23.4871 64.66 24.0488" fill="#D0A650"/>
<path d="M124.313 81.0665H5.68683V109.111H124.313V81.0665Z" fill="#D0A650"/>
<path d="M18.5316 93.838C18.5316 93.136 18.3886 92.616 18.1026 92.278C17.8166 91.9313 17.4266 91.7623 16.9326 91.771H16.3086V97.868C16.3086 98.102 16.3043 98.3273 16.2956 98.544C16.287 98.7607 16.274 98.9253 16.2566 99.038C16.404 99.0207 16.5903 99.012 16.8156 99.012C17.0496 99.0033 17.21 98.999 17.2966 98.999V100H13.5006V99.142C13.7 99.1333 13.8646 99.1073 13.9946 99.064C14.1333 99.0207 14.2373 98.921 14.3066 98.765C14.3846 98.609 14.4236 98.3577 14.4236 98.011V91.784H13.8256C13.3316 91.7927 12.9416 91.9617 12.6556 92.291C12.3696 92.6203 12.2266 93.136 12.2266 93.838H11.3686L11.4336 90.9H19.3116L19.3896 93.838H18.5316ZM20.2657 100V99.142C20.4651 99.1333 20.6297 99.1073 20.7597 99.064C20.8984 99.0207 21.0024 98.921 21.0717 98.765C21.1497 98.609 21.1887 98.3577 21.1887 98.011V93.032C21.1887 92.798 21.1931 92.5727 21.2017 92.356C21.2191 92.1393 21.2321 91.9747 21.2407 91.862C21.1021 91.8707 20.9287 91.8793 20.7207 91.888C20.5127 91.888 20.3611 91.8923 20.2657 91.901V90.9C20.8811 90.8913 21.4964 90.887 22.1117 90.887C22.7271 90.887 23.3424 90.8827 23.9577 90.874C24.7204 90.8653 25.3834 90.952 25.9467 91.134C26.5101 91.316 26.9434 91.6107 27.2467 92.018C27.5501 92.4253 27.6931 92.9757 27.6757 93.669C27.6584 94.2237 27.4634 94.7263 27.0907 95.177C26.7181 95.6277 26.1504 95.9613 25.3877 96.178C25.5524 96.2473 25.7127 96.36 25.8687 96.516C26.0334 96.672 26.1721 96.8367 26.2847 97.01L26.8957 97.92C27.1817 98.362 27.4201 98.674 27.6107 98.856C27.8101 99.0293 28.0571 99.1247 28.3517 99.142V100H26.2067C26.0507 99.8873 25.8947 99.727 25.7387 99.519C25.5914 99.3023 25.4311 99.0553 25.2577 98.778L24.2957 97.218C24.0791 96.8713 23.8971 96.62 23.7497 96.464H23.0737V97.855C23.0737 98.0977 23.0694 98.3273 23.0607 98.544C23.0521 98.7607 23.0391 98.9253 23.0217 99.038C23.1171 99.0293 23.2384 99.025 23.3857 99.025C23.5331 99.0163 23.6761 99.012 23.8147 99.012C23.9621 99.0033 24.0661 98.999 24.1267 98.999V100H20.2657ZM23.6977 95.528C24.4171 95.528 24.9327 95.3677 25.2447 95.047C25.5567 94.7177 25.7127 94.2237 25.7127 93.565C25.7127 93.149 25.6477 92.824 25.5177 92.59C25.3877 92.3473 25.2231 92.1697 25.0237 92.057C24.8331 91.9357 24.6381 91.862 24.4387 91.836C24.2394 91.8013 24.0747 91.784 23.9447 91.784C23.6761 91.784 23.4637 91.8403 23.3077 91.953C23.1517 92.0657 23.0737 92.3517 23.0737 92.811V95.476C23.1691 95.4847 23.2687 95.4977 23.3727 95.515C23.4767 95.5237 23.5851 95.528 23.6977 95.528ZM28.5798 100V99.103C28.8225 99.103 29.0175 99.0337 29.1648 98.895C29.3122 98.7563 29.4335 98.5743 29.5288 98.349C29.6328 98.1237 29.7325 97.881 29.8278 97.621L32.3628 90.666H33.2728L36.0418 97.751C36.0938 97.881 36.1632 98.0803 36.2498 98.349C36.3365 98.609 36.3885 98.8387 36.4058 99.038C36.5532 99.0207 36.6918 99.012 36.8218 99.012C36.9605 99.0033 37.0732 98.999 37.1598 98.999V100H33.6628V99.142C34.0182 99.142 34.2175 99.0337 34.2608 98.817C34.3042 98.5917 34.2652 98.3187 34.1438 97.998L33.8838 97.283L31.0628 97.335L30.8548 97.946C30.8115 98.0587 30.7465 98.2277 30.6598 98.453C30.5818 98.6697 30.5082 98.8517 30.4388 98.999C30.5775 98.9817 30.7422 98.973 30.9328 98.973C31.1322 98.9643 31.2752 98.96 31.3618 98.96V100H28.5798ZM31.3878 96.36H33.5588L32.9608 94.735C32.8482 94.423 32.7485 94.111 32.6618 93.799C32.5752 93.4783 32.5102 93.1967 32.4668 92.954H32.4538C32.4192 93.1013 32.3672 93.3223 32.2978 93.617C32.2285 93.9117 32.1202 94.2627 31.9728 94.67L31.3878 96.36ZM40.3558 100.078L37.3658 93.097C37.2791 92.8803 37.1968 92.655 37.1188 92.421C37.0408 92.187 37.0018 92.0007 37.0018 91.862C36.7158 91.8707 36.4818 91.8837 36.2998 91.901V90.9H40.1348V91.758C39.8141 91.7493 39.5671 91.8187 39.3938 91.966C39.2291 92.1133 39.2248 92.3777 39.3808 92.759C39.5801 93.2443 39.7795 93.734 39.9788 94.228C40.1781 94.722 40.3775 95.2117 40.5768 95.697C40.7241 96.061 40.8498 96.3817 40.9538 96.659C41.0578 96.9277 41.1791 97.2267 41.3178 97.556H41.3308C41.4261 97.296 41.5258 97.0057 41.6298 96.685C41.7425 96.3643 41.8508 96.0567 41.9548 95.762C42.1195 95.3027 42.2841 94.8477 42.4488 94.397C42.6135 93.9463 42.7781 93.4957 42.9428 93.045C42.9861 92.8977 43.0555 92.6983 43.1508 92.447C43.2548 92.1957 43.3631 92.0007 43.4758 91.862C43.3371 91.8707 43.1595 91.8793 42.9428 91.888C42.7261 91.888 42.5701 91.8923 42.4748 91.901V90.9H45.3998V91.758C45.1051 91.7667 44.8495 91.875 44.6328 92.083C44.4161 92.291 44.2125 92.6463 44.0218 93.149C43.5885 94.3017 43.1551 95.4543 42.7218 96.607C42.2885 97.7597 41.8551 98.9167 41.4218 100.078H40.3558ZM50.4699 96.867C50.4699 96.503 50.4136 96.243 50.3009 96.087C50.1882 95.9223 50.0322 95.8183 49.8329 95.775C49.6422 95.7317 49.4299 95.7143 49.1959 95.723L48.8579 95.736V97.868C48.8579 98.102 48.8536 98.323 48.8449 98.531C48.8362 98.739 48.8232 98.8993 48.8059 99.012H50.5479C50.8079 99.012 51.0592 98.9557 51.3019 98.843C51.5446 98.7217 51.7439 98.5267 51.8999 98.258C52.0559 97.9807 52.1339 97.608 52.1339 97.14H52.9789L52.9139 100H46.0499V99.142C46.2492 99.1333 46.4139 99.1073 46.5439 99.064C46.6826 99.0207 46.7866 98.921 46.8559 98.765C46.9339 98.609 46.9729 98.3577 46.9729 98.011V93.032C46.9729 92.798 46.9772 92.5727 46.9859 92.356C47.0032 92.1393 47.0162 91.9747 47.0249 91.862C46.8862 91.8707 46.7129 91.8793 46.5049 91.888C46.2969 91.888 46.1452 91.8923 46.0499 91.901V90.9H52.5499L52.6279 93.422H51.7699C51.7699 92.9453 51.6876 92.5857 51.5229 92.343C51.3582 92.1003 51.1546 91.94 50.9119 91.862C50.6692 91.7753 50.4309 91.7363 50.1969 91.745L49.7289 91.758C49.5469 91.758 49.3909 91.784 49.2609 91.836C49.1309 91.8793 49.0312 91.9833 48.9619 92.148C48.8926 92.304 48.8579 92.551 48.8579 92.889V94.839H50.3789L50.3269 93.708H51.3279V96.867H50.4699ZM54.1622 100V99.142C54.3615 99.1333 54.5262 99.1073 54.6562 99.064C54.7949 99.0207 54.8989 98.921 54.9682 98.765C55.0462 98.609 55.0852 98.3577 55.0852 98.011V93.032C55.0852 92.798 55.0895 92.5727 55.0982 92.356C55.1155 92.1393 55.1285 91.9747 55.1372 91.862C54.9985 91.8707 54.8252 91.8793 54.6172 91.888C54.4092 91.888 54.2575 91.8923 54.1622 91.901V90.9H57.8932V91.758C57.7025 91.7667 57.5379 91.7927 57.3992 91.836C57.2605 91.8793 57.1522 91.979 57.0742 92.135C57.0049 92.2823 56.9702 92.5337 56.9702 92.889V97.868C56.9702 98.102 56.9659 98.323 56.9572 98.531C56.9485 98.739 56.9355 98.8993 56.9182 99.012H58.6602C59.1715 99.0033 59.5702 98.8257 59.8562 98.479C60.1509 98.1237 60.2982 97.5907 60.2982 96.88H61.1692L61.0912 100H54.1622ZM65.4229 100V99.142C65.6223 99.1333 65.7869 99.1073 65.9169 99.064C66.0556 99.0207 66.1596 98.921 66.2289 98.765C66.3069 98.609 66.3459 98.3577 66.3459 98.011V93.032C66.3459 92.798 66.3503 92.5727 66.3589 92.356C66.3763 92.1393 66.3893 91.9747 66.3979 91.862C66.2593 91.8707 66.0859 91.8793 65.8779 91.888C65.6699 91.888 65.5183 91.8923 65.4229 91.901V90.9H69.1539V91.758C68.9633 91.7667 68.7986 91.7927 68.6599 91.836C68.5213 91.8793 68.4129 91.979 68.3349 92.135C68.2656 92.2823 68.2309 92.5337 68.2309 92.889V94.865H69.1669L70.1679 93.162C70.3153 92.902 70.4713 92.642 70.6359 92.382C70.8006 92.122 70.9393 91.9443 71.0519 91.849C70.9133 91.8577 70.7659 91.8663 70.6099 91.875C70.4539 91.8837 70.3283 91.8923 70.2329 91.901V90.9H73.4179V91.758C73.2273 91.7667 73.0193 91.8013 72.7939 91.862C72.5773 91.9227 72.3519 92.044 72.1179 92.226C71.8839 92.408 71.6456 92.694 71.4029 93.084L70.1549 95.086C70.4843 95.3027 70.7573 95.5583 70.9739 95.853L72.3129 97.738C72.5729 98.1107 72.8459 98.4357 73.1319 98.713C73.4266 98.9817 73.7213 99.1247 74.0159 99.142V100H72.0139C71.9446 99.9913 71.8319 99.9133 71.6759 99.766C71.5199 99.6187 71.3553 99.441 71.1819 99.233C71.0086 99.025 70.8613 98.8387 70.7399 98.674L69.4529 96.802C69.3403 96.6373 69.2146 96.4683 69.0759 96.295C68.9459 96.1217 68.8203 95.9917 68.6989 95.905H68.2309V97.868C68.2309 98.102 68.2266 98.3273 68.2179 98.544C68.2093 98.7607 68.1963 98.9253 68.1789 99.038C68.3176 99.0207 68.4909 99.012 68.6989 99.012C68.9156 99.0033 69.0673 98.999 69.1539 98.999V100H65.4229ZM78.4736 100.208C77.6503 100.208 76.9483 100.069 76.3676 99.792C75.7956 99.5147 75.332 99.1463 74.9766 98.687C74.6213 98.219 74.3613 97.7033 74.1966 97.14C74.032 96.5767 73.9496 96.0133 73.9496 95.45C73.9496 94.904 74.0406 94.3537 74.2226 93.799C74.4133 93.2357 74.695 92.72 75.0676 92.252C75.449 91.784 75.9256 91.407 76.4976 91.121C77.0696 90.835 77.7413 90.692 78.5126 90.692C79.3013 90.692 79.9816 90.835 80.5536 91.121C81.1256 91.407 81.5936 91.7883 81.9576 92.265C82.3216 92.733 82.5903 93.2443 82.7636 93.799C82.9456 94.3537 83.0366 94.904 83.0366 95.45C83.0366 95.9873 82.9413 96.5333 82.7506 97.088C82.5686 97.6427 82.287 98.1583 81.9056 98.635C81.533 99.103 81.0606 99.4843 80.4886 99.779C79.9166 100.065 79.245 100.208 78.4736 100.208ZM78.6166 99.259C79.0673 99.259 79.4443 99.1507 79.7476 98.934C80.051 98.7087 80.2936 98.4183 80.4756 98.063C80.6576 97.7077 80.7876 97.322 80.8656 96.906C80.9436 96.4813 80.9826 96.0697 80.9826 95.671C80.9826 94.8737 80.8873 94.1717 80.6966 93.565C80.506 92.9583 80.2156 92.4817 79.8256 92.135C79.4443 91.7883 78.9503 91.6237 78.3436 91.641C77.9016 91.6497 77.529 91.771 77.2256 92.005C76.9223 92.2303 76.6796 92.525 76.4976 92.889C76.3156 93.2443 76.1856 93.6343 76.1076 94.059C76.0296 94.4837 75.9906 94.8953 75.9906 95.294C75.9906 95.7013 76.034 96.1347 76.1206 96.594C76.216 97.0533 76.3633 97.4867 76.5626 97.894C76.762 98.3013 77.0306 98.6307 77.3686 98.882C77.7066 99.1333 78.1226 99.259 78.6166 99.259ZM89.3878 93.812C89.2752 93.0927 89.0238 92.5467 88.6338 92.174C88.2438 91.8013 87.7455 91.6193 87.1388 91.628C86.7662 91.628 86.4368 91.732 86.1508 91.94C85.8735 92.148 85.7348 92.4167 85.7348 92.746C85.7348 93.1447 85.9082 93.474 86.2548 93.734C86.6015 93.994 87.1302 94.2713 87.8408 94.566C88.1702 94.696 88.5082 94.8477 88.8548 95.021C89.2015 95.1943 89.5222 95.4023 89.8168 95.645C90.1115 95.879 90.3498 96.1563 90.5318 96.477C90.7138 96.789 90.8048 97.1573 90.8048 97.582C90.8048 98.0933 90.6662 98.5483 90.3888 98.947C90.1115 99.3457 89.7215 99.6577 89.2188 99.883C88.7248 100.1 88.1442 100.208 87.4768 100.208C87.1302 100.208 86.7532 100.152 86.3458 100.039C85.9472 99.935 85.5702 99.779 85.2148 99.571L85.2538 100.117H84.2528V97.075H85.1108C85.2322 97.803 85.5095 98.3533 85.9428 98.726C86.3848 99.09 86.9092 99.272 87.5158 99.272C87.9752 99.272 88.3478 99.1507 88.6338 98.908C88.9285 98.6653 89.0758 98.3793 89.0758 98.05C89.0758 97.7467 88.9675 97.4953 88.7508 97.296C88.5428 97.0967 88.2785 96.9277 87.9578 96.789C87.6458 96.6503 87.3252 96.516 86.9958 96.386C86.4412 96.1607 85.9385 95.9093 85.4878 95.632C85.0458 95.346 84.6948 95.008 84.4348 94.618C84.1748 94.2193 84.0448 93.7383 84.0448 93.175C84.0448 92.9063 84.0968 92.629 84.2008 92.343C84.3048 92.0483 84.4738 91.7797 84.7078 91.537C84.9418 91.2857 85.2538 91.082 85.6438 90.926C86.0338 90.77 86.5148 90.692 87.0868 90.692C87.4335 90.692 87.8105 90.744 88.2178 90.848C88.6338 90.952 88.9892 91.108 89.2838 91.316L89.2318 90.783H90.2458V93.812H89.3878ZM96.2344 100.208C95.411 100.208 94.709 100.069 94.1284 99.792C93.5564 99.5147 93.0927 99.1463 92.7374 98.687C92.382 98.219 92.122 97.7033 91.9574 97.14C91.7927 96.5767 91.7104 96.0133 91.7104 95.45C91.7104 94.904 91.8014 94.3537 91.9834 93.799C92.174 93.2357 92.4557 92.72 92.8284 92.252C93.2097 91.784 93.6864 91.407 94.2584 91.121C94.8304 90.835 95.502 90.692 96.2734 90.692C97.062 90.692 97.7424 90.835 98.3144 91.121C98.8864 91.407 99.3544 91.7883 99.7184 92.265C100.082 92.733 100.351 93.2443 100.524 93.799C100.706 94.3537 100.797 94.904 100.797 95.45C100.797 95.9873 100.702 96.5333 100.511 97.088C100.329 97.6427 100.048 98.1583 99.6664 98.635C99.2937 99.103 98.8214 99.4843 98.2494 99.779C97.6774 100.065 97.0057 100.208 96.2344 100.208ZM96.3774 99.259C96.828 99.259 97.205 99.1507 97.5084 98.934C97.8117 98.7087 98.0544 98.4183 98.2364 98.063C98.4184 97.7077 98.5484 97.322 98.6264 96.906C98.7044 96.4813 98.7434 96.0697 98.7434 95.671C98.7434 94.8737 98.648 94.1717 98.4574 93.565C98.2667 92.9583 97.9764 92.4817 97.5864 92.135C97.205 91.7883 96.711 91.6237 96.1044 91.641C95.6624 91.6497 95.2897 91.771 94.9864 92.005C94.683 92.2303 94.4404 92.525 94.2584 92.889C94.0764 93.2443 93.9464 93.6343 93.8684 94.059C93.7904 94.4837 93.7514 94.8953 93.7514 95.294C93.7514 95.7013 93.7947 96.1347 93.8814 96.594C93.9767 97.0533 94.124 97.4867 94.3234 97.894C94.5227 98.3013 94.7914 98.6307 95.1294 98.882C95.4674 99.1333 95.8834 99.259 96.3774 99.259ZM105.115 100.078L102.125 93.097C102.038 92.8803 101.956 92.655 101.878 92.421C101.8 92.187 101.761 92.0007 101.761 91.862C101.475 91.8707 101.241 91.8837 101.059 91.901V90.9H104.894V91.758C104.573 91.7493 104.326 91.8187 104.153 91.966C103.988 92.1133 103.984 92.3777 104.14 92.759C104.339 93.2443 104.538 93.734 104.738 94.228C104.937 94.722 105.136 95.2117 105.336 95.697C105.483 96.061 105.609 96.3817 105.713 96.659C105.817 96.9277 105.938 97.2267 106.077 97.556H106.09C106.185 97.296 106.285 97.0057 106.389 96.685C106.501 96.3643 106.61 96.0567 106.714 95.762C106.878 95.3027 107.043 94.8477 107.208 94.397C107.372 93.9463 107.537 93.4957 107.702 93.045C107.745 92.8977 107.814 92.6983 107.91 92.447C108.014 92.1957 108.122 92.0007 108.235 91.862C108.096 91.8707 107.918 91.8793 107.702 91.888C107.485 91.888 107.329 91.8923 107.234 91.901V90.9H110.159V91.758C109.864 91.7667 109.608 91.875 109.392 92.083C109.175 92.291 108.971 92.6463 108.781 93.149C108.347 94.3017 107.914 95.4543 107.481 96.607C107.047 97.7597 106.614 98.9167 106.181 100.078H105.115ZM109.208 100V99.103C109.45 99.103 109.645 99.0337 109.793 98.895C109.94 98.7563 110.061 98.5743 110.157 98.349C110.261 98.1237 110.36 97.881 110.456 97.621L112.991 90.666H113.901L116.67 97.751C116.722 97.881 116.791 98.0803 116.878 98.349C116.964 98.609 117.016 98.8387 117.034 99.038C117.181 99.0207 117.32 99.012 117.45 99.012C117.588 99.0033 117.701 98.999 117.788 98.999V100H114.291V99.142C114.646 99.142 114.845 99.0337 114.889 98.817C114.932 98.5917 114.893 98.3187 114.772 97.998L114.512 97.283L111.691 97.335L111.483 97.946C111.439 98.0587 111.374 98.2277 111.288 98.453C111.21 98.6697 111.136 98.8517 111.067 98.999C111.205 98.9817 111.37 98.973 111.561 98.973C111.76 98.9643 111.903 98.96 111.99 98.96V100H109.208ZM112.016 96.36H114.187L113.589 94.735C113.476 94.423 113.376 94.111 113.29 93.799C113.203 93.4783 113.138 93.1967 113.095 92.954H113.082C113.047 93.1013 112.995 93.3223 112.926 93.617C112.856 93.9117 112.748 94.2627 112.601 94.67L112.016 96.36Z" fill="white"/>
<path d="M56.8864 116.724C57.2524 116.826 57.5344 117.012 57.7324 117.282C57.9364 117.552 58.0384 117.882 58.0384 118.272C58.0384 118.812 57.8434 119.235 57.4534 119.541C57.0694 119.847 56.5384 120 55.8604 120H53.5384C53.3644 120 53.2264 119.952 53.1244 119.856C53.0284 119.76 52.9804 119.625 52.9804 119.451V114.204C52.9804 114.03 53.0284 113.895 53.1244 113.799C53.2264 113.703 53.3644 113.655 53.5384 113.655H55.7704C56.4304 113.655 56.9464 113.802 57.3184 114.096C57.6964 114.384 57.8854 114.789 57.8854 115.311C57.8854 115.647 57.7954 115.938 57.6154 116.184C57.4414 116.43 57.1984 116.61 56.8864 116.724ZM54.1144 116.328H55.5814C56.3794 116.328 56.7784 116.031 56.7784 115.437C56.7784 115.137 56.6794 114.915 56.4814 114.771C56.2834 114.627 55.9834 114.555 55.5814 114.555H54.1144V116.328ZM55.7344 119.1C56.1544 119.1 56.4604 119.025 56.6524 118.875C56.8444 118.725 56.9404 118.491 56.9404 118.173C56.9404 117.855 56.8414 117.618 56.6434 117.462C56.4514 117.306 56.1484 117.228 55.7344 117.228H54.1144V119.1H55.7344ZM59.6729 120C59.4989 120 59.3639 119.952 59.2679 119.856C59.1719 119.76 59.1239 119.628 59.1239 119.46V114.186C59.1239 114.012 59.1749 113.874 59.2769 113.772C59.3849 113.664 59.5259 113.61 59.6999 113.61C59.8799 113.61 60.0209 113.664 60.1229 113.772C60.2309 113.874 60.2849 114.012 60.2849 114.186V119.046H62.8139C63.1739 119.046 63.3539 119.205 63.3539 119.523C63.3539 119.841 63.1739 120 62.8139 120H59.6729ZM66.5994 120.081C65.9814 120.081 65.4444 119.949 64.9884 119.685C64.5384 119.421 64.1904 119.043 63.9444 118.551C63.6984 118.059 63.5754 117.483 63.5754 116.823C63.5754 116.163 63.6954 115.59 63.9354 115.104C64.1814 114.612 64.5324 114.234 64.9884 113.97C65.4444 113.706 65.9814 113.574 66.5994 113.574C67.2174 113.574 67.7514 113.706 68.2014 113.97C68.6574 114.234 69.0054 114.612 69.2454 115.104C69.4914 115.59 69.6144 116.163 69.6144 116.823C69.6144 117.483 69.4914 118.059 69.2454 118.551C68.9994 119.043 68.6484 119.421 68.1924 119.685C67.7424 119.949 67.2114 120.081 66.5994 120.081ZM66.5994 119.154C67.1814 119.154 67.6344 118.953 67.9584 118.551C68.2884 118.149 68.4534 117.573 68.4534 116.823C68.4534 116.073 68.2884 115.5 67.9584 115.104C67.6344 114.702 67.1814 114.501 66.5994 114.501C66.0114 114.501 65.5524 114.702 65.2224 115.104C64.8984 115.5 64.7364 116.073 64.7364 116.823C64.7364 117.573 64.8984 118.149 65.2224 118.551C65.5524 118.953 66.0114 119.154 66.5994 119.154ZM75.62 116.571C75.758 116.571 75.869 116.613 75.953 116.697C76.037 116.775 76.079 116.88 76.079 117.012V118.947C76.079 119.223 76.043 119.418 75.971 119.532C75.899 119.646 75.752 119.739 75.53 119.811C75.29 119.895 75.011 119.961 74.693 120.009C74.375 120.057 74.069 120.081 73.775 120.081C73.121 120.081 72.554 119.952 72.074 119.694C71.594 119.436 71.225 119.064 70.967 118.578C70.715 118.086 70.589 117.501 70.589 116.823C70.589 116.157 70.715 115.581 70.967 115.095C71.225 114.603 71.588 114.228 72.056 113.97C72.524 113.706 73.076 113.574 73.712 113.574C74.558 113.574 75.251 113.802 75.791 114.258C75.863 114.324 75.914 114.39 75.944 114.456C75.98 114.522 75.998 114.6 75.998 114.69C75.998 114.822 75.962 114.933 75.89 115.023C75.818 115.113 75.731 115.158 75.629 115.158C75.563 115.158 75.503 115.149 75.449 115.131C75.395 115.107 75.332 115.071 75.26 115.023C74.996 114.837 74.75 114.708 74.522 114.636C74.294 114.558 74.036 114.519 73.748 114.519C73.094 114.519 72.599 114.714 72.263 115.104C71.933 115.488 71.768 116.061 71.768 116.823C71.768 118.383 72.452 119.163 73.82 119.163C74.228 119.163 74.636 119.106 75.044 118.992V117.399H74.027C73.883 117.399 73.769 117.363 73.685 117.291C73.607 117.219 73.568 117.117 73.568 116.985C73.568 116.853 73.607 116.751 73.685 116.679C73.769 116.607 73.883 116.571 74.027 116.571H75.62Z" fill="white"/>
</g>
<defs>
<clipPath id="clip0_1_3">
<rect width="130" height="149" fill="white"/>
</clipPath>
</defs>
</svg>
